<svg width="152" height="50" viewBox="0 0 152 50" fill="none" xmlns="http://www.w3.org/2000/svg">
<path d="M38.9307 8.06949C38.9307 7.80353 43.4337 0 52.0063 0C52.0063 0 52.5259 10.907 46.7242 18.1783L38.9307 8.06949Z" fill="#C75400"/>
<path d="M41.1829 8.81646C41.1829 8.62866 44.2609 3.12474 50.1213 3.12474C50.1213 3.12474 50.4767 10.8179 46.5104 15.9469L41.1829 8.81646Z" fill="white"/>
<path d="M21.0699 8.06949C21.0699 7.80353 16.5668 0 7.99422 0C7.99422 0 7.47459 10.907 13.2764 18.1783L21.0699 8.06949Z" fill="#C75400"/>
<path d="M18.8176 8.81646C18.8176 8.62866 15.7396 3.12474 9.8792 3.12474C9.8792 3.12474 9.52383 10.8179 13.4901 15.9469L18.8176 8.81646Z" fill="white"/>
<path d="M53.6018 24.7676C57.5636 25.8036 59.3339 28.7384 59.3339 28.7384C58.7438 18.035 43.4805 4.95607 30.0003 4.95607C16.5197 4.95607 1.25675 18.0347 0.66667 28.7384C0.66667 28.7384 2.43692 25.8036 6.39836 24.7676C6.39836 24.7676 -1.18798 29.1699 0.160635 36.9387C3.78518 32.2776 14.0687 29.3428 18.9578 31.7595C23.847 34.1761 23.3409 38.665 23.931 42.2039C24.2661 44.2156 24.67 46.407 26.0033 47.5037C27.0157 48.3367 28.8355 48.3324 29.9999 48.3324C31.164 48.3324 32.9838 48.3367 33.9966 47.5037C35.3302 46.407 35.7334 44.2156 36.0688 42.2039C36.6589 38.665 36.1529 34.1761 41.042 31.7595C45.9311 29.3424 56.2143 32.2773 59.8392 36.9387C61.1885 29.1702 53.6018 24.7676 53.6018 24.7676Z" fill="#DB5C00"/>
<path d="M59.8409 36.9387C57.4008 34.655 41.8005 30.4063 34.7938 42.4483C34.7938 42.4483 34.0935 36.434 34.7938 35.2089C37.5503 30.3865 48.7989 22.6152 59.8409 36.9387Z" fill="white"/>
<path d="M0.159592 36.9387C2.59979 34.655 18.2 30.4063 25.2067 42.4483C25.2067 42.4483 25.907 36.434 25.2067 35.2089C22.4506 30.3865 11.2017 22.6152 0.159592 36.9387Z" fill="white"/>
<path d="M30.0003 44.1233L25.6828 47.6799C25.6828 47.6799 26.3827 50 30.0003 50C33.6178 50 34.3178 47.6799 34.3178 47.6799L30.0003 44.1233Z" fill="white"/>
<path d="M18.9582 29.7895C23.8473 32.5701 23.3413 37.7345 23.9314 41.8064C24.2665 44.1205 24.6703 46.6418 26.0036 47.9041C27.016 48.8626 28.8358 48.8576 30.0003 48.8576C31.1644 48.8576 32.9842 48.8626 33.9969 47.9041C35.3306 46.6422 35.7337 44.1208 36.0692 41.8064C36.6593 37.7345 36.1532 32.5705 41.0424 29.7895C45.9315 27.0089 14.0691 27.0089 18.9582 29.7895Z" fill="#DB5C00"/>
<path d="M34.7924 26.1739C34.7924 26.1739 39.4611 25.3547 41.7991 21.9662C41.7991 21.9662 39.5685 19.4809 36.7897 21.5761C34.9235 22.9823 34.7924 26.1739 34.7924 26.1739Z" fill="#263138"/>
<path d="M38.1279 24.2343C38.8862 24.2343 39.5009 23.6049 39.5009 22.8284C39.5009 22.052 38.8862 21.4226 38.1279 21.4226C37.3696 21.4226 36.7548 22.052 36.7548 22.8284C36.7548 23.6049 37.3696 24.2343 38.1279 24.2343Z" fill="#DB8B08"/>
<path d="M37.7808 23.1443C38.0661 23.1443 38.2973 22.9074 38.2973 22.6152C38.2973 22.3229 38.0661 22.0861 37.7808 22.0861C37.4956 22.0861 37.2644 22.3229 37.2644 22.6152C37.2644 22.9074 37.4956 23.1443 37.7808 23.1443Z" fill="white"/>
<path d="M25.2081 26.1739C25.2081 26.1739 20.5394 25.3547 18.2014 21.9662C18.2014 21.9662 20.432 19.4809 23.2112 21.5761C25.0766 22.9823 25.2081 26.1739 25.2081 26.1739Z" fill="#263138"/>
<path d="M21.8727 24.2343C22.631 24.2343 23.2457 23.6049 23.2457 22.8284C23.2457 22.052 22.631 21.4226 21.8727 21.4226C21.1144 21.4226 20.4996 22.052 20.4996 22.8284C20.4996 23.6049 21.1144 24.2343 21.8727 24.2343Z" fill="#DB8B08"/>
<path d="M21.5253 23.1443C21.8106 23.1443 22.0418 22.9074 22.0418 22.6152C22.0418 22.3229 21.8106 22.0861 21.5253 22.0861C21.2401 22.0861 21.0088 22.3229 21.0088 22.6152C21.0088 22.9074 21.2401 23.1443 21.5253 23.1443Z" fill="white"/>
<path d="M30.0002 42.7723C28.2146 42.7723 26.8203 43.1617 26.1406 44.0505C26.1406 44.0505 28.2058 47.2084 30.0002 47.2084C31.7945 47.2084 33.8598 44.0505 33.8598 44.0505C33.18 43.1617 31.7854 42.7723 30.0002 42.7723Z" fill="#263138"/>
<path opacity="0.8" d="M30.0003 43.4381C31.6118 43.4381 32.9517 43.633 33.8515 44.0631C33.8564 44.0556 33.8595 44.0507 33.8595 44.0507C33.1798 43.1616 31.7852 42.7725 29.9999 42.7725C28.2143 42.7725 26.82 43.1619 26.1403 44.0507C26.1403 44.0507 26.1435 44.0556 26.1487 44.0631C27.0488 43.633 28.3887 43.4381 30.0003 43.4381Z" fill="#3C454A"/>
<path opacity="0.12" d="M30.0002 4.95643C26.8273 4.95643 23.5571 5.68783 20.4012 6.9356C18.8573 4.70956 14.6549 0 7.99414 0C7.99414 0 7.67853 6.63816 10.2941 13.0096C4.82925 17.5922 0.957788 23.4537 0.666583 28.7384C0.666583 28.7384 2.43683 25.8036 6.39827 24.7676C6.39827 24.7676 -1.18702 29.1695 0.160549 36.9369C0.1602 36.9373 0.159851 36.938 0.159503 36.9384C0.159851 36.938 0.1602 36.9377 0.160549 36.9373C0.160549 36.9377 0.160549 36.938 0.160549 36.9384C0.161595 36.9369 0.16299 36.9355 0.164385 36.9338C2.45427 34.8029 16.1667 30.9764 23.6833 40.2378C23.7555 40.9119 23.8259 41.5729 23.9313 42.2039C24.0784 43.0863 24.2385 44.0034 24.4847 44.8473C24.7613 45.9394 25.1474 46.9248 25.7451 47.6282L25.6827 47.6799C25.6827 47.6799 26.3826 49.9996 30.0002 49.9996V4.95643Z" fill="white"/>
<path d="M68 10.9062H83.125V15H75V19.7188H82.125V24.2188H75V33H68V10.9062ZM96.5 33.4531C95.1354 33.4531 93.9167 33.3021 92.8438 33C91.7708 32.7083 90.8229 32.3021 90 31.7812C89.1875 31.25 88.4948 30.625 87.9219 29.9062C87.3594 29.1771 86.8958 28.3906 86.5312 27.5469C86.1771 26.6927 85.9167 25.7969 85.75 24.8594C85.5938 23.9219 85.5156 22.9688 85.5156 22C85.5156 21.0417 85.6146 20.0938 85.8125 19.1562C86.0104 18.2083 86.3073 17.3073 86.7031 16.4531C87.099 15.599 87.599 14.8073 88.2031 14.0781C88.8073 13.349 89.5156 12.7188 90.3281 12.1875C91.1406 11.6562 92.0573 11.2396 93.0781 10.9375C94.1094 10.6354 95.25 10.4844 96.5 10.4844C97.75 10.4844 98.8854 10.6354 99.9062 10.9375C100.938 11.2396 101.859 11.6562 102.672 12.1875C103.495 12.7188 104.208 13.349 104.812 14.0781C105.417 14.8073 105.917 15.599 106.312 16.4531C106.719 17.3073 107.021 18.2083 107.219 19.1562C107.417 20.0938 107.516 21.0417 107.516 22C107.516 22.9688 107.432 23.9219 107.266 24.8594C107.099 25.7969 106.833 26.6927 106.469 27.5469C106.115 28.3906 105.651 29.1771 105.078 29.9062C104.505 30.625 103.812 31.25 103 31.7812C102.188 32.3021 101.24 32.7083 100.156 33C99.0833 33.3021 97.8646 33.4531 96.5 33.4531ZM92.5156 22C92.5156 23.25 92.6042 24.3177 92.7812 25.2031C92.9688 26.0885 93.2292 26.8125 93.5625 27.375C93.9062 27.9375 94.3229 28.349 94.8125 28.6094C95.3125 28.8698 95.875 29 96.5 29C97.125 29 97.6823 28.8698 98.1719 28.6094C98.6719 28.349 99.0938 27.9375 99.4375 27.375C99.7917 26.8125 100.057 26.0885 100.234 25.2031C100.422 24.3177 100.516 23.25 100.516 22C100.516 20.75 100.422 19.6823 100.234 18.7969C100.057 17.901 99.7917 17.1719 99.4375 16.6094C99.0938 16.0365 98.6719 15.6146 98.1719 15.3438C97.6823 15.0729 97.125 14.9375 96.5 14.9375C95.875 14.9375 95.3125 15.0729 94.8125 15.3438C94.3229 15.6146 93.9062 16.0365 93.5625 16.6094C93.2292 17.1719 92.9688 17.901 92.7812 18.7969C92.6042 19.6823 92.5156 20.75 92.5156 22ZM124.406 22L129.906 33H121.406L118.594 24.6719L114.812 33H108.406L113.906 22L108.406 10.9062H116.906L120.281 18.7344L123.906 10.9062H129.906L124.406 22ZM135.078 10.9062H142.078L141.078 25H136.078L135.078 10.9062ZM138.578 33.4531C137.901 33.4531 137.307 33.3646 136.797 33.1875C136.297 33.0104 135.88 32.7917 135.547 32.5312C135.224 32.2604 134.979 31.9479 134.812 31.5938C134.656 31.2396 134.578 30.8802 134.578 30.5156C134.578 30.1406 134.661 29.776 134.828 29.4219C135.005 29.0573 135.26 28.7344 135.594 28.4531C135.927 28.1615 136.344 27.9323 136.844 27.7656C137.344 27.5885 137.922 27.5 138.578 27.5C139.234 27.5 139.812 27.5885 140.312 27.7656C140.812 27.9323 141.229 28.1562 141.562 28.4375C141.906 28.7188 142.161 29.0417 142.328 29.4062C142.505 29.7604 142.594 30.125 142.594 30.5C142.594 30.8646 142.51 31.2292 142.344 31.5938C142.188 31.9479 141.943 32.2604 141.609 32.5312C141.276 32.7917 140.859 33.0104 140.359 33.1875C139.859 33.3646 139.266 33.4531 138.578 33.4531Z" fill="black"/>
</svg>
