<svg width="33" height="29" viewBox="0 0 33 29" fill="none" xmlns="http://www.w3.org/2000/svg">
<path d="M21.6663 4.68031C21.6663 4.52605 24.0673 0 28.6382 0C28.6382 0 28.9152 6.32608 25.8217 10.5434L21.6663 4.68031Z" fill="#C75400"/>
<path d="M22.8671 5.11355C22.8671 5.00462 24.5083 1.81235 27.633 1.81235C27.633 1.81235 27.8225 6.27439 25.7077 9.24922L22.8671 5.11355Z" fill="white"/>
<path d="M12.1429 4.68031C12.1429 4.52605 9.74186 0 5.17098 0C5.17098 0 4.89391 6.32608 7.9874 10.5434L12.1429 4.68031Z" fill="#C75400"/>
<path d="M10.942 5.11355C10.942 5.00462 9.30077 1.81235 6.17604 1.81235C6.17604 1.81235 5.98655 6.27439 8.10138 9.24922L10.942 5.11355Z" fill="white"/>
<path d="M29.4888 14.3652C31.6013 14.9661 32.5451 16.6683 32.5451 16.6683C32.2305 10.4603 24.0921 2.87454 16.9045 2.87454C9.71676 2.87454 1.57857 10.4601 1.26394 16.6683C1.26394 16.6683 2.20784 14.9661 4.32006 14.3652C4.32006 14.3652 0.275052 16.9185 0.994128 21.4245C2.92673 18.721 8.40989 17.0188 11.0167 18.4205C13.6236 19.8222 13.3538 22.4257 13.6684 24.4783C13.8471 25.6451 14.0625 26.9161 14.7733 27.5522C15.3132 28.0353 16.2835 28.0328 16.9044 28.0328C17.5251 28.0328 18.4954 28.0353 19.0354 27.5522C19.7464 26.9161 19.9614 25.6451 20.1403 24.4783C20.4549 22.4257 20.1851 19.8222 22.792 18.4205C25.3988 17.0186 30.8818 18.7208 32.8146 21.4245C33.534 16.9187 29.4888 14.3652 29.4888 14.3652Z" fill="#DB5C00"/>
<path d="M32.8155 21.4245C31.5144 20.0999 23.1964 17.6357 19.4604 24.62C19.4604 24.62 19.0871 21.1318 19.4604 20.4212C20.9302 17.6242 26.9279 13.1168 32.8155 21.4245Z" fill="white"/>
<path d="M0.993591 21.4245C2.2947 20.0999 10.6127 17.6357 14.3487 24.62C14.3487 24.62 14.722 21.1318 14.3487 20.4212C12.8791 17.6242 6.8812 13.1168 0.993591 21.4245Z" fill="white"/>
<path d="M16.9045 25.5915L14.6024 27.6543C14.6024 27.6543 14.9757 29 16.9045 29C18.8334 29 19.2066 27.6543 19.2066 27.6543L16.9045 25.5915Z" fill="white"/>
<path d="M11.017 17.2779C13.6238 18.8906 13.354 21.886 13.6686 24.2477C13.8473 25.5899 14.0627 27.0523 14.7735 27.7844C15.3134 28.3403 16.2837 28.3374 16.9046 28.3374C17.5253 28.3374 18.4956 28.3403 19.0356 27.7844C19.7466 27.0525 19.9616 25.5901 20.1405 24.2477C20.4551 21.886 20.1853 18.8909 22.7922 17.2779C25.399 15.6651 8.41009 15.6651 11.017 17.2779Z" fill="#DB5C00"/>
<path d="M19.4597 15.1808C19.4597 15.1808 21.9497 14.7058 23.1966 12.7404C23.1966 12.7404 22.007 11.2989 20.5249 12.5141C19.5297 13.3297 19.4597 15.1808 19.4597 15.1808Z" fill="#263138"/>
<path d="M21.2383 14.0559C21.6427 14.0559 21.9706 13.6908 21.9706 13.2405C21.9706 12.7902 21.6427 12.4251 21.2383 12.4251C20.8339 12.4251 20.506 12.7902 20.506 13.2405C20.506 13.6908 20.8339 14.0559 21.2383 14.0559Z" fill="#DB8B08"/>
<path d="M21.0533 13.4237C21.2054 13.4237 21.3287 13.2863 21.3287 13.1168C21.3287 12.9473 21.2054 12.8099 21.0533 12.8099C20.9011 12.8099 20.7778 12.9473 20.7778 13.1168C20.7778 13.2863 20.9011 13.4237 21.0533 13.4237Z" fill="white"/>
<path d="M14.3503 15.1808C14.3503 15.1808 11.8603 14.7058 10.6134 12.7404C10.6134 12.7404 11.8031 11.2989 13.2853 12.5141C14.2802 13.3297 14.3503 15.1808 14.3503 15.1808Z" fill="#263138"/>
<path d="M12.5711 14.0559C12.9755 14.0559 13.3034 13.6908 13.3034 13.2405C13.3034 12.7902 12.9755 12.4251 12.5711 12.4251C12.1667 12.4251 11.8388 12.7902 11.8388 13.2405C11.8388 13.6908 12.1667 14.0559 12.5711 14.0559Z" fill="#DB8B08"/>
<path d="M12.3859 13.4237C12.538 13.4237 12.6613 13.2863 12.6613 13.1168C12.6613 12.9473 12.538 12.8099 12.3859 12.8099C12.2337 12.8099 12.1104 12.9473 12.1104 13.1168C12.1104 13.2863 12.2337 13.4237 12.3859 13.4237Z" fill="white"/>
<path d="M16.9046 24.8079C15.9525 24.8079 15.2091 25.0338 14.8467 25.5493C14.8467 25.5493 15.9479 27.3809 16.9046 27.3809C17.8613 27.3809 18.9625 25.5493 18.9625 25.5493C18.6001 25.0338 17.8565 24.8079 16.9046 24.8079Z" fill="#263138"/>
<path opacity="0.8" d="M16.9046 25.1942C17.7638 25.1942 18.4783 25.3073 18.958 25.5567C18.9606 25.5524 18.9623 25.5495 18.9623 25.5495C18.5999 25.0338 17.8563 24.8082 16.9044 24.8082C15.9523 24.8082 15.2089 25.034 14.8464 25.5495C14.8464 25.5495 14.8481 25.5524 14.8509 25.5567C15.3308 25.3073 16.0453 25.1942 16.9046 25.1942Z" fill="#3C454A"/>
<path opacity="0.12" d="M16.9046 2.87473C15.2128 2.87473 13.4691 3.29894 11.7864 4.02265C10.9632 2.73154 8.72248 0 5.17099 0C5.17099 0 5.0027 3.85013 6.39734 7.5456C3.48347 10.2035 1.41922 13.6032 1.26395 16.6683C1.26395 16.6683 2.20784 14.9661 4.32007 14.3652C4.32007 14.3652 0.275617 16.9183 0.994135 21.4234C0.993949 21.4236 0.993763 21.424 0.993577 21.4242C0.993763 21.424 0.993949 21.4238 0.994135 21.4236C0.994135 21.4238 0.994135 21.424 0.994135 21.4242C0.994693 21.4234 0.995437 21.4226 0.99618 21.4216C2.21714 20.1857 9.52858 17.9663 13.5364 23.3379C13.5749 23.7289 13.6125 24.1123 13.6686 24.4783C13.7471 24.9901 13.8324 25.522 13.9637 26.0114C14.1112 26.6449 14.317 27.2164 14.6358 27.6244L14.6025 27.6543C14.6025 27.6543 14.9757 28.9998 16.9046 28.9998V2.87473Z" fill="white"/>
</svg>
